<svg xmlns="http://www.w3.org/2000/svg" xmlns:xlink="http://www.w3.org/1999/xlink" width="25" height="25" viewBox="0 0 25 25">
  <defs>
    <clipPath id="clip-path">
      <rect id="Rectangle_41" data-name="Rectangle 41" width="25" height="25" transform="translate(0.148 0.077)" fill="none"/>
    </clipPath>
  </defs>
  <g id="snap_logo" transform="translate(-0.148 -0.077)">
    <g id="Group_19" data-name="Group 19" clip-path="url(#clip-path)">
      <path id="Path_27" data-name="Path 27" d="M25.41,12.705A12.705,12.705,0,1,1,12.705,0,12.705,12.705,0,0,1,25.41,12.705" fill="#fefb00" fill-rule="evenodd"/>
      <path id="Path_28" data-name="Path 28" d="M22.92,25.828c0-.047,0-.082,0-.118,0-.226,0-.452.008-.679a7.308,7.308,0,0,1,.185-1.461,4.517,4.517,0,0,1,.839-1.731,5.155,5.155,0,0,1,2.776-1.818,6.013,6.013,0,0,1,1.815-.195,5.7,5.7,0,0,1,1.9.386,5.065,5.065,0,0,1,2.459,2,4.548,4.548,0,0,1,.642,1.677,8.763,8.763,0,0,1,.124,1.516c0,.135,0,.269,0,.4.028.028.05.009.071,0a2.311,2.311,0,0,1,.579-.052,1.653,1.653,0,0,1,.728.2,1.485,1.485,0,0,1,.757,1,1.591,1.591,0,0,1-.332,1.407,2.52,2.52,0,0,1-.573.516c-.177.12-.358.236-.537.353l-.219.143c-.023.015-.046.03-.068.047a.237.237,0,0,0-.1.3.945.945,0,0,0,.057.131,4.426,4.426,0,0,0,.931,1.255,5.924,5.924,0,0,0,1.4.982c.137.071.275.142.41.217a1.44,1.44,0,0,1,.323.242,1.084,1.084,0,0,1,.133,1.386,1.7,1.7,0,0,1-.552.533,4.405,4.405,0,0,1-.562.285,5.353,5.353,0,0,1-.617.216c-.072.021-.143.046-.214.072a.3.3,0,0,0-.175.169c-.021.047-.041.095-.059.143a1.329,1.329,0,0,1-.992.855,3.025,3.025,0,0,1-.542.067c-.2.011-.4.015-.606.028a3.971,3.971,0,0,0-.945.173,1.881,1.881,0,0,0-.379.171c-.161.094-.321.19-.48.287a6.685,6.685,0,0,1-.861.455,4.778,4.778,0,0,1-1.306.347,5.448,5.448,0,0,1-1.188.012,4.755,4.755,0,0,1-1.723-.51c-.222-.115-.437-.243-.65-.373-.091-.056-.184-.11-.274-.167a2.546,2.546,0,0,0-.875-.326,5.869,5.869,0,0,0-.946-.092,4.9,4.9,0,0,1-.628-.05,1.6,1.6,0,0,1-.452-.14,1.3,1.3,0,0,1-.639-.678c-.025-.058-.047-.118-.07-.177a.338.338,0,0,0-.215-.208c-.064-.022-.128-.042-.193-.061a5.044,5.044,0,0,1-1.055-.43,1.887,1.887,0,0,1-.577-.472,1.231,1.231,0,0,1-.246-.471,1.065,1.065,0,0,1,.248-1.007,1.32,1.32,0,0,1,.294-.241,3.851,3.851,0,0,1,.355-.194,6.27,6.27,0,0,0,1.22-.781,4.662,4.662,0,0,0,1.1-1.284c.051-.089.1-.183.143-.274a.515.515,0,0,0,.052-.17.2.2,0,0,0-.05-.165.683.683,0,0,0-.139-.111l-.717-.47a2.879,2.879,0,0,1-.427-.342,1.844,1.844,0,0,1-.454-.676,1.594,1.594,0,0,1,.364-1.683,1.56,1.56,0,0,1,.849-.423,1.949,1.949,0,0,1,.756.022l.11.022" transform="translate(-15.567 -16.091)"/>
      <path id="Path_29" data-name="Path 29" d="M37.259,30.231c0,.349-.021.7-.047,1.046,0,.059-.006.119-.007.178,0,.129.072.182.2.17a.588.588,0,0,0,.139-.032c.127-.045.253-.092.379-.14a5.077,5.077,0,0,1,.643-.212.979.979,0,0,1,.447-.018.54.54,0,0,1,.388.745.784.784,0,0,1-.148.229,1.6,1.6,0,0,1-.3.255c-.128.087-.258.171-.387.256-.215.142-.431.283-.645.426-.089.059-.176.123-.26.188a.993.993,0,0,0-.13.122.419.419,0,0,0-.11.317,1.584,1.584,0,0,0,.059.339,4.225,4.225,0,0,0,.448,1.007,5.776,5.776,0,0,0,1.33,1.511,7.569,7.569,0,0,0,1.455.919c.046.023.091.047.136.073a.277.277,0,0,1,.087.08.139.139,0,0,1,.01.157.4.4,0,0,1-.1.115,1.157,1.157,0,0,1-.19.122,4.234,4.234,0,0,1-.929.36c-.138.037-.275.077-.411.117a1.545,1.545,0,0,0-.273.116.489.489,0,0,0-.264.36c-.018.089-.028.18-.044.27a.354.354,0,0,1-.344.347,2.078,2.078,0,0,1-.236.026c-.2.011-.4.016-.595.027a5.146,5.146,0,0,0-1.319.235,2.781,2.781,0,0,0-.52.232c-.175.1-.348.205-.521.31a5.558,5.558,0,0,1-.855.441,3.794,3.794,0,0,1-1.039.24,4.467,4.467,0,0,1-.9-.01,3.688,3.688,0,0,1-1.279-.388c-.187-.1-.368-.2-.547-.313q-.2-.121-.4-.239a3.37,3.37,0,0,0-1.018-.387,5.675,5.675,0,0,0-.99-.123c-.174-.007-.349-.014-.523-.024a1.492,1.492,0,0,1-.294-.044.315.315,0,0,1-.25-.257c-.015-.078-.028-.156-.041-.234,0-.016,0-.032-.006-.047a.54.54,0,0,0-.328-.448,2.576,2.576,0,0,0-.368-.133c-.217-.06-.437-.114-.65-.19a3.787,3.787,0,0,1-.542-.242c-.052-.028-.1-.06-.152-.093a.568.568,0,0,1-.091-.076.171.171,0,0,1,.024-.291,1.036,1.036,0,0,1,.186-.1,7.506,7.506,0,0,0,1.284-.791,5.846,5.846,0,0,0,1.438-1.572,4.255,4.255,0,0,0,.475-1.047,1.515,1.515,0,0,0,.063-.362.426.426,0,0,0-.118-.314,1.124,1.124,0,0,0-.161-.141c-.165-.124-.337-.238-.51-.351l-.658-.429a2.178,2.178,0,0,1-.311-.24,1.042,1.042,0,0,1-.181-.22.561.561,0,0,1-.033-.536.477.477,0,0,1,.276-.264.806.806,0,0,1,.433-.035,2.857,2.857,0,0,1,.5.141c.168.061.334.126.5.189a1.189,1.189,0,0,0,.239.071.332.332,0,0,0,.059.008c.1,0,.175-.034.175-.163,0-.107-.006-.214-.013-.321a15.918,15.918,0,0,1-.031-1.737,6.012,6.012,0,0,1,.136-1.1,3.548,3.548,0,0,1,.635-1.37,4.128,4.128,0,0,1,2.244-1.5,4.982,4.982,0,0,1,1.519-.17,4.742,4.742,0,0,1,1.578.315,4.013,4.013,0,0,1,1.3.8,3.691,3.691,0,0,1,1.045,1.593,4.715,4.715,0,0,1,.182.871,10.639,10.639,0,0,1,.052,1.379" transform="translate(-20.178 -20.514)" fill="#fff"/>
    </g>
  </g>
</svg>
