<svg xmlns="http://www.w3.org/2000/svg" xmlns:xlink="http://www.w3.org/1999/xlink" width="25" height="25" viewBox="0 0 25 25">
  <defs>
    <clipPath id="clip-path">
      <rect id="Rectangle_46" data-name="Rectangle 46" width="25" height="25" transform="translate(0.47 0.488)" fill="none"/>
    </clipPath>
  </defs>
  <g id="tiktok_logo" transform="translate(-0.47 -0.488)">
    <g id="Group_30" data-name="Group 30" clip-path="url(#clip-path)">
      <path id="Path_36" data-name="Path 36" d="M25.41,12.705A12.705,12.705,0,1,1,12.705,0,12.705,12.705,0,0,1,25.41,12.705" fill="#010201"/>
      <path id="Path_37" data-name="Path 37" d="M34.768,38.325l.046.042c.141.1.242.242.377.35a2.457,2.457,0,0,0,1.427.551,2.421,2.421,0,0,0,2.533-2.144,1.648,1.648,0,0,0,0-.185v-11.4c0-.256,0-.257.255-.257h1.733a.259.259,0,0,1,.16.024l.01.008a.2.2,0,0,1,.044.1,4,4,0,0,0,1.606,2.459c.053.039.1.087.148.128l.11.094a2.558,2.558,0,0,1,.351.3,4,4,0,0,0,1.584.81c.052.013.111.013.149.062a.032.032,0,0,0,.009.008.166.166,0,0,1,.029.127q0,1.005,0,2.01c0,.153-.021.161-.176.161a6.45,6.45,0,0,1-1.45-.175,6.949,6.949,0,0,1-2.279-.982c-.037-.024-.075-.075-.114-.058s-.024.086-.024.132c0,1.886.007,3.773,0,5.659a5.4,5.4,0,0,1-4.771,5.362,5.34,5.34,0,0,1-3.071-.543,2.8,2.8,0,0,1-.448-.274l-.133-.118a3.665,3.665,0,0,1-.785-1,5.426,5.426,0,0,1-.729-2.941,5.394,5.394,0,0,1,3.682-4.873,4.89,4.89,0,0,1,1.24-.252,1.766,1.766,0,0,1,.236-.019.173.173,0,0,1,.108.025l.012.008a.226.226,0,0,1,.017.121q0,1.02,0,2.04c0,.024,0,.048,0,.072,0,.068-.038.091-.1.073a2.583,2.583,0,0,0-.569-.087,2.166,2.166,0,0,0-.871.129,2.417,2.417,0,0,0-.545,4.31c.068.047.137.091.2.144" transform="translate(-25.454 -20.521)" fill="#fff"/>
      <path id="Path_38" data-name="Path 38" d="M40.133,57.931c.036-.01.056.019.082.034a5.39,5.39,0,0,0,1.966.726,5.058,5.058,0,0,0,1.068.062,5.376,5.376,0,0,0,4.97-4.007,5.208,5.208,0,0,0,.164-1.077c.011-.209.01-.419.01-.628q0-2.7,0-5.393v-.123c.047-.013.068.022.094.04a6.9,6.9,0,0,0,2.081.969,7,7,0,0,0,1.253.226c.179.016.357.014.535.026.078.006.079,0,.08-.079s0-.172,0-.258q0-.913,0-1.825c0-.038,0-.075,0-.113.16.018.318.053.479.065a2.83,2.83,0,0,0,.3.014c.049,0,.07.016.064.065a.563.563,0,0,0,0,.062v2.64c0,.017,0,.034,0,.052,0,.077,0,.078-.083.078a6.39,6.39,0,0,1-.823-.055,6.941,6.941,0,0,1-3.039-1.164c-.027-.019-.056-.036-.1-.063v.123q0,2.882,0,5.764a5.357,5.357,0,0,1-5.74,5.351,5.315,5.315,0,0,1-3.3-1.436c-.025-.023-.046-.05-.069-.075" transform="translate(-32.579 -37.757)" fill="#cb1c54"/>
      <path id="Path_39" data-name="Path 39" d="M56.217,22.407c-.038,0-.075.005-.113.005H54.247c-.144,0-.144,0-.144.139q0,5.671,0,11.342a2.441,2.441,0,0,1-.1.772,2.459,2.459,0,0,1-4.248.846.323.323,0,0,1-.027-.043,3.3,3.3,0,0,0,.576.19,2.459,2.459,0,0,0,2.925-2.009,2.361,2.361,0,0,0,.029-.421q0-5.682,0-11.364c0-.177-.025-.155.151-.155h2.682c.089,0,.091,0,.091.092a2.985,2.985,0,0,0,.037.6" transform="translate(-40.367 -17.623)" fill="#6abac5"/>
      <path id="Path_40" data-name="Path 40" d="M33.092,55.408a5.51,5.51,0,0,0-1.563.271,5.375,5.375,0,0,0-3.483,3.642,5.178,5.178,0,0,0-.182,1.062,5.319,5.319,0,0,0,1.452,4.053.26.26,0,0,1,.023.033,1.269,1.269,0,0,1-.278-.192,5.357,5.357,0,0,1-2.05-4.57,5.355,5.355,0,0,1,3.527-4.68,5.34,5.34,0,0,1,1.425-.3,5.545,5.545,0,0,1,1.059.024c.048.006.076.015.075.072,0,.2,0,.392,0,.587" transform="translate(-21.918 -44.413)" fill="#6abac5"/>
      <path id="Path_41" data-name="Path 41" d="M43.76,65.234a2.031,2.031,0,0,1-.57-.4,2.386,2.386,0,0,1-.742-1.49,2.451,2.451,0,0,1,3.09-2.634.149.149,0,0,0,.08.011.28.28,0,0,0,.008-.112q0-1.031,0-2.062c0-.037,0-.075.006-.113a4.415,4.415,0,0,1,.791.035c.041,0,.053.024.051.06,0,.021,0,.041,0,.062q0,1.366,0,2.732a.175.175,0,0,1-.013.1c-.12-.022-.238-.059-.36-.076a2.407,2.407,0,0,0-1.9.5,2.352,2.352,0,0,0-.892,1.507,2.4,2.4,0,0,0,.4,1.8c.015.023.029.046.043.069" transform="translate(-34.446 -47.43)" fill="#cb1c54"/>
      <path id="Path_42" data-name="Path 42" d="M86.056,28.115a3.425,3.425,0,0,1-.71-.574,4.02,4.02,0,0,1-1.087-2.095.107.107,0,0,1,0-.021c.247-.014.494,0,.741-.007.044,0,.063.017.059.061,0,.017,0,.034,0,.052a3.71,3.71,0,0,0,.53,1.92,3.972,3.972,0,0,0,.422.6c.017.021.042.037.045.067" transform="translate(-68.399 -20.634)" fill="#cb1c54"/>
      <path id="Path_43" data-name="Path 43" d="M96.481,41.412a4.019,4.019,0,0,1-1.861-.946,1.464,1.464,0,0,1-.223-.226.109.109,0,0,1,.066.025,4.078,4.078,0,0,0,1.368.484,3.312,3.312,0,0,0,.573.05c.08,0,.082,0,.082.079,0,.178,0,.356,0,.534" transform="translate(-76.629 -32.665)" fill="#6abac5"/>
    </g>
  </g>
</svg>
